<?xml version="1.0" encoding="UTF-8"?>
<!DOCTYPE svg PUBLIC "-//W3C//DTD SVG 1.1//EN" "http://www.w3.org/Graphics/SVG/1.1/DTD/svg11.dtd">
<!-- Creator: CorelDRAW 2020 (64-Bit) -->
<svg xmlns="http://www.w3.org/2000/svg" xml:space="preserve" width="2192px" height="2192px" version="1.1" style="shape-rendering:geometricPrecision; text-rendering:geometricPrecision; image-rendering:optimizeQuality; fill-rule:evenodd; clip-rule:evenodd"
viewBox="0 0 2385.85 2385.85"
 xmlns:xlink="http://www.w3.org/1999/xlink"
 xmlns:xodm="http://www.corel.com/coreldraw/odm/2003">
 <defs>
  <style type="text/css">
   <![CDATA[
    .fil0 {fill:#FEFEFE}
    .fil3 {fill:#5B3DDB}
    .fil1 {fill:#6ADCBA}
    .fil2 {fill:#7651FF}
   ]]>
  </style>
 </defs>
 <g id="图层_x0020_1">
  <metadata id="CorelCorpID_0Corel-Layer"/>
  <rect class="fil0" width="2385.85" height="2385.85"/>
  <g id="_1207577100224">
   <path class="fil1" d="M1181.84 700.1c48.06,14.89 96.56,29.78 144.59,44.62 48.09,14.86 96.56,29.78 144.7,44.61 42.72,13.15 79.58,13 114.54,-0.11 42.19,-15.83 84.45,-31.7 126.53,-47.64 10.38,-3.93 22.92,-0.75 34.17,8.32 11.26,9.07 18.07,21.5 18.07,33.81 0,83.39 0,167 0,250.6 0,33.59 0,67.51 0,101.21 0,79.39 0,158.79 0,237.97 0,79.17 0,158.57 0,237.75 0,67.93 -57.8,105.86 -128.36,84.14 -75.75,-23.31 -151.51,-46.6 -227.24,-70 -75.61,-23.36 -151.27,-46.55 -227,-69.88 -70.45,-21.7 -128.14,-95.38 -128.14,-163.32 0,-50.56 0,-101.22 0,-151.77 0,-50.66 0,-101.54 0,-152.2 0,-50.44 0,-101.1 0,-151.76 0,-50.66 0,-101.43 0,-152.09 0,-68.05 57.69,-106.08 128.14,-84.26z"/>
   <path class="fil2" d="M1203.67 1686.09c-48.22,-14.73 -96.48,-29.94 -144.71,-44.72 -48,-14.7 -96.48,-29.59 -144.6,-44.29 -42.75,-13.05 -79.55,-13.17 -114.52,0 -42.18,15.89 -84.37,31.65 -126.54,47.54 -10.29,3.87 -22.92,0.91 -34.18,-8.11 -11.26,-9.02 -17.71,-21.92 -17.71,-34.02 0,-83.5 0,-167.11 0,-250.71 0,-33.71 0,-67.62 0,-101.43 0,-79.18 0,-158.57 0,-237.86 0,-79.18 0,-158.57 0,-237.96 0,-67.94 57.58,-105.79 128.02,-84.04 75.75,23.39 151.3,46.76 227,70.1 75.62,23.32 151.44,46.72 227.24,70 70.5,21.65 128.13,95.27 128.13,163.22 0,50.65 0,101.32 0,151.97 0,50.67 0,101.33 0,151.98 0,50.56 0,101.33 0,151.99 0,50.66 0,101.21 0,151.87 0,68.06 -57.6,106.02 -128.13,84.47z"/>
   <path class="fil3" d="M1053.7 785.87c50.06,15.56 100.02,31.12 149.97,46.66 70.52,21.94 128.13,96.46 128.13,165.38 0,51.31 0,102.73 0,154.14 0,51.31 0,102.72 0,153.93 0,49.14 0,98.07 0,147.12 0,49.03 0,97.97 0,147.01 -50.07,-15.34 -100.03,-30.87 -149.96,-46.56 -70.43,-22.11 -128.14,-96.67 -128.14,-165.59 0,-51.2 0,-102.62 0,-153.92 0,-51.31 0,-102.84 0,-154.14 0,-49.05 0,-97.98 0,-147.02 0,-49.04 0,-97.97 0,-147.01z"/>
  </g>
 </g>
</svg>
